<mxfile host="app.diagrams.net" agent="Mozilla/5.0 (Windows NT 10.0; Win64; x64; rv:136.0) Gecko/20100101 Firefox/136.0" version="26.2.13">
  <diagram id="C5RBs43oDa-KdzZeNtuy" name="Page-1">
    <mxGraphModel dx="1556" dy="859" grid="1" gridSize="10" guides="1" tooltips="1" connect="1" arrows="1" fold="1" page="1" pageScale="1" pageWidth="827" pageHeight="1169" math="0" shadow="0">
      <root>
        <mxCell id="WIyWlLk6GJQsqaUBKTNV-0" />
        <mxCell id="WIyWlLk6GJQsqaUBKTNV-1" parent="WIyWlLk6GJQsqaUBKTNV-0" />
        <mxCell id="R2ifnXC42aHUSGFcLJvb-0" value="&lt;div&gt;- CSD scorer&lt;/div&gt;&lt;div&gt;- enter study name&lt;/div&gt;&lt;div&gt;- press space when animal is interacting&lt;/div&gt;&lt;div&gt;- enter T1 vs T2&lt;/div&gt;&lt;div&gt;- enter animal ID&lt;/div&gt;&lt;div&gt;- calculate SP score&lt;/div&gt;&lt;div&gt;- add all to a list (define columns etc)&lt;/div&gt;&lt;div&gt;- export with study name .csv&lt;/div&gt;" style="text;html=1;align=center;verticalAlign=middle;resizable=0;points=[];autosize=1;strokeColor=none;fillColor=none;" vertex="1" parent="WIyWlLk6GJQsqaUBKTNV-1">
          <mxGeometry x="15" width="240" height="130" as="geometry" />
        </mxCell>
        <mxCell id="R2ifnXC42aHUSGFcLJvb-1" value="Class: animal" style="swimlane;fontStyle=0;childLayout=stackLayout;horizontal=1;startSize=30;horizontalStack=0;resizeParent=1;resizeParentMax=0;resizeLast=0;collapsible=1;marginBottom=0;whiteSpace=wrap;html=1;" vertex="1" parent="WIyWlLk6GJQsqaUBKTNV-1">
          <mxGeometry x="140" y="220" width="140" height="150" as="geometry" />
        </mxCell>
        <mxCell id="R2ifnXC42aHUSGFcLJvb-2" value="&lt;div&gt;ID&lt;/div&gt;" style="text;strokeColor=none;fillColor=none;align=left;verticalAlign=middle;spacingLeft=4;spacingRight=4;overflow=hidden;points=[[0,0.5],[1,0.5]];portConstraint=eastwest;rotatable=0;whiteSpace=wrap;html=1;" vertex="1" parent="R2ifnXC42aHUSGFcLJvb-1">
          <mxGeometry y="30" width="140" height="30" as="geometry" />
        </mxCell>
        <mxCell id="R2ifnXC42aHUSGFcLJvb-3" value="T1 score" style="text;strokeColor=default;fillColor=none;align=left;verticalAlign=middle;spacingLeft=4;spacingRight=4;overflow=hidden;points=[[0,0.5],[1,0.5]];portConstraint=eastwest;rotatable=0;whiteSpace=wrap;html=1;" vertex="1" parent="R2ifnXC42aHUSGFcLJvb-1">
          <mxGeometry y="60" width="140" height="30" as="geometry" />
        </mxCell>
        <mxCell id="R2ifnXC42aHUSGFcLJvb-7" value="T2 score" style="text;strokeColor=none;fillColor=none;align=left;verticalAlign=middle;spacingLeft=4;spacingRight=4;overflow=hidden;points=[[0,0.5],[1,0.5]];portConstraint=eastwest;rotatable=0;whiteSpace=wrap;html=1;" vertex="1" parent="R2ifnXC42aHUSGFcLJvb-1">
          <mxGeometry y="90" width="140" height="30" as="geometry" />
        </mxCell>
        <mxCell id="R2ifnXC42aHUSGFcLJvb-4" value="SP %" style="text;strokeColor=default;fillColor=none;align=left;verticalAlign=middle;spacingLeft=4;spacingRight=4;overflow=hidden;points=[[0,0.5],[1,0.5]];portConstraint=eastwest;rotatable=0;whiteSpace=wrap;html=1;" vertex="1" parent="R2ifnXC42aHUSGFcLJvb-1">
          <mxGeometry y="120" width="140" height="30" as="geometry" />
        </mxCell>
        <mxCell id="R2ifnXC42aHUSGFcLJvb-13" value="" style="edgeStyle=orthogonalEdgeStyle;rounded=0;orthogonalLoop=1;jettySize=auto;html=1;" edge="1" parent="WIyWlLk6GJQsqaUBKTNV-1" source="R2ifnXC42aHUSGFcLJvb-12" target="R2ifnXC42aHUSGFcLJvb-2">
          <mxGeometry relative="1" as="geometry" />
        </mxCell>
        <mxCell id="R2ifnXC42aHUSGFcLJvb-12" value="&lt;div style=&quot;line-height: 100%;&quot;&gt;&lt;h3 style=&quot;margin-top: 0px; line-height: 100%;&quot;&gt;&lt;font style=&quot;font-size: 15px; line-height: 100%;&quot;&gt;ID:&lt;/font&gt;&lt;/h3&gt;&lt;div&gt;With each scoring:&lt;/div&gt;&lt;p&gt;- Ask for animal ID&lt;/p&gt;&lt;p&gt;- If already exists, continue&lt;/p&gt;&lt;p&gt;- If new ID, create instance&lt;/p&gt;&lt;/div&gt;" style="text;html=1;whiteSpace=wrap;overflow=hidden;rounded=0;strokeColor=default;" vertex="1" parent="WIyWlLk6GJQsqaUBKTNV-1">
          <mxGeometry x="360" y="130" width="180" height="140" as="geometry" />
        </mxCell>
        <mxCell id="R2ifnXC42aHUSGFcLJvb-14" style="edgeStyle=orthogonalEdgeStyle;rounded=0;orthogonalLoop=1;jettySize=auto;html=1;exitX=0.5;exitY=1;exitDx=0;exitDy=0;" edge="1" parent="WIyWlLk6GJQsqaUBKTNV-1" source="R2ifnXC42aHUSGFcLJvb-12" target="R2ifnXC42aHUSGFcLJvb-12">
          <mxGeometry relative="1" as="geometry" />
        </mxCell>
        <mxCell id="R2ifnXC42aHUSGFcLJvb-15" value="&lt;div style=&quot;line-height: 100%;&quot;&gt;&lt;h3 style=&quot;margin-top: 0px; line-height: 100%;&quot;&gt;T1/T2:&lt;/h3&gt;&lt;p&gt;- Ask if scoring T1 or T2&lt;/p&gt;&lt;p&gt;- check if the input property exists/has a value assigned to it.&lt;/p&gt;&lt;p&gt;- If new, create property, start scoring, when finished (&quot;esc&quot;) assign value to that property.&lt;/p&gt;&lt;p&gt;- If exists, warn user, ask whether to continue scoring or re-enter&lt;/p&gt;&lt;p&gt;- If re-enter, then re-ask for session being scored&lt;/p&gt;&lt;p&gt;- If continue, overwrite the old value&lt;/p&gt;&lt;/div&gt;" style="text;html=1;whiteSpace=wrap;overflow=hidden;rounded=0;glass=0;shadow=0;strokeColor=default;collapsible=0;" vertex="1" parent="WIyWlLk6GJQsqaUBKTNV-1">
          <mxGeometry x="340" y="455" width="180" height="260" as="geometry">
            <mxRectangle x="340" y="455" width="510" height="190" as="alternateBounds" />
          </mxGeometry>
        </mxCell>
        <mxCell id="R2ifnXC42aHUSGFcLJvb-16" style="edgeStyle=orthogonalEdgeStyle;rounded=0;orthogonalLoop=1;jettySize=auto;html=1;exitX=1;exitY=0.5;exitDx=0;exitDy=0;entryX=0;entryY=0.5;entryDx=0;entryDy=0;" edge="1" parent="WIyWlLk6GJQsqaUBKTNV-1" source="R2ifnXC42aHUSGFcLJvb-7" target="R2ifnXC42aHUSGFcLJvb-15">
          <mxGeometry relative="1" as="geometry" />
        </mxCell>
        <mxCell id="R2ifnXC42aHUSGFcLJvb-17" style="edgeStyle=orthogonalEdgeStyle;rounded=0;orthogonalLoop=1;jettySize=auto;html=1;exitX=1;exitY=0.5;exitDx=0;exitDy=0;entryX=0;entryY=0.5;entryDx=0;entryDy=0;" edge="1" parent="WIyWlLk6GJQsqaUBKTNV-1" source="R2ifnXC42aHUSGFcLJvb-3" target="R2ifnXC42aHUSGFcLJvb-15">
          <mxGeometry relative="1" as="geometry" />
        </mxCell>
      </root>
    </mxGraphModel>
  </diagram>
</mxfile>
